<?xml version="1.0" encoding="UTF-8"?>
<svg fill="none" version="1.1" viewBox="0 0 22 22" xmlns="http://www.w3.org/2000/svg">
 <path d="m10.988 0.19922a0.80008 0.80008 0 0 0-0.55469 0.23438l-10 10a0.80102 0.80102 0 1 0 1.1328 1.1328l9.4336-9.4336 9.4336 9.4336a0.80102 0.80102 0 1 0 1.1328-1.1328l-3.7266-3.7266a0.80008 0.80008 0 0 0 0.38867-0.70703v-4.2305a0.80008 0.80008 0 0 0-0.80078-0.80078h-2.1426a0.80008 0.80008 0 0 0-0.80078 0.80078v1.1543a0.80078 0.80078 0 1 0 1.6016 0v-0.35547h0.54297v2.9277l-5.0625-5.0625a0.80008 0.80008 0 0 0-0.57812-0.23438zm7.1523 10.75a0.80008 0.80008 0 0 0-0.79688 0.82031v8.4297h-12.686v-8.4297a0.80008 0.80008 0 0 0-0.8125-0.8125 0.80008 0.80008 0 0 0-0.78906 0.8125v9.2305a0.80008 0.80008 0 0 0 0.80078 0.79883h14.285a0.80008 0.80008 0 0 0 0.80078-0.79883v-9.2305a0.80008 0.80008 0 0 0-0.80273-0.82031z" fill="#ffffff" />
</svg>
