<?xml version="1.0" encoding="UTF-8"?>
<svg version="1.1" viewBox="0 0 24 24" xmlns="http://www.w3.org/2000/svg">
 <path d="m24 12a12 12 0 0 1-12 12 12 12 0 0 1-12-12 12 12 0 0 1 12-12 12 12 0 0 1 12 12z" fill="#ececec"/>
 <path d="m12 3.5293a3.5294 3.5294 0 0 0-3.5293 3.5293 3.5294 3.5294 0 0 0 3.5293 3.5293 3.5294 3.5294 0 0 0 3.5293-3.5293 3.5294 3.5294 0 0 0-3.5293-3.5293zm0 9.1777c-4.6782 0-7.0586 2.8226-7.0586 4.2344 0.70588 1.0588 2.4704 3.5293 7.0586 3.5293 3.5294 0 6.3527-2.4705 7.0586-3.5293 0-1.4118-2.3804-4.2344-7.0586-4.2344z" fill="#ababab"/>
</svg>
